<svg height="280" transform="translate(30 30)" width="192"><g><circle cx="0" cy="0" r="10"><circle cx="0" cy="50" r="10"></circle><circle cx="80" cy="50" r="10"></circle></circle><line style="stroke:rgb(0,0,0);stroke-width:2" x1="0" x2="0" y1="0" y2="50"></line><g transform="translate(0 50)"><circle cx="0" cy="0" r="10"><circle cx="0" cy="50" r="10"></circle><circle cx="25" cy="50" r="10"></circle></circle><line style="stroke:rgb(0,0,0);stroke-width:2" x1="0" x2="0" y1="0" y2="50"></line><g transform="translate(0 50)"><circle cx="0" cy="0" r="10"></circle></g><line style="stroke:rgb(0,0,0);stroke-width:2" x1="0" x2="25" y1="0" y2="50"></line><g transform="translate(25 50)"><circle cx="0" cy="0" r="10"><circle cx="0" cy="50" r="10"></circle><circle cx="25" cy="50" r="10"></circle></circle><line style="stroke:rgb(0,0,0);stroke-width:2" x1="0" x2="0" y1="0" y2="50"></line><g transform="translate(0 50)"><circle cx="0" cy="0" r="10"></circle></g><line style="stroke:rgb(0,0,0);stroke-width:2" x1="0" x2="25" y1="0" y2="50"></line><g transform="translate(25 50)"><circle cx="0" cy="0" r="10"></circle></g></g></g><line style="stroke:rgb(0,0,0);stroke-width:2" x1="0" x2="80" y1="0" y2="50"></line><g transform="translate(80 50)"><circle cx="0" cy="0" r="10"><circle cx="0" cy="50" r="10"></circle></circle><line style="stroke:rgb(0,0,0);stroke-width:2" x1="0" x2="0" y1="0" y2="50"></line><g transform="translate(0 50)"><circle cx="0" cy="0" r="10"><circle cx="0" cy="50" r="10"></circle><circle cx="25" cy="50" r="10"></circle><circle cx="50" cy="50" r="10"></circle></circle><line style="stroke:rgb(0,0,0);stroke-width:2" x1="0" x2="0" y1="0" y2="50"></line><g transform="translate(0 50)"><circle cx="0" cy="0" r="10"></circle></g><line style="stroke:rgb(0,0,0);stroke-width:2" x1="0" x2="25" y1="0" y2="50"></line><g transform="translate(25 50)"><circle cx="0" cy="0" r="10"></circle></g><line style="stroke:rgb(0,0,0);stroke-width:2" x1="0" x2="50" y1="0" y2="50"></line><g transform="translate(50 50)"><circle cx="0" cy="0" r="10"><circle cx="0" cy="50" r="10"></circle></circle><line style="stroke:rgb(0,0,0);stroke-width:2" x1="0" x2="0" y1="0" y2="50"></line><g transform="translate(0 50)"><circle cx="0" cy="0" r="10"></circle></g></g></g></g></g></svg>
